<?xml version="1.0" encoding="UTF-8" standalone="no"?>
<!-- Created with Inkscape (http://www.inkscape.org/) -->

<svg
   xmlns:dc="http://purl.org/dc/elements/1.1/"
   xmlns:cc="http://creativecommons.org/ns#"
   xmlns:rdf="http://www.w3.org/1999/02/22-rdf-syntax-ns#"
   xmlns:svg="http://www.w3.org/2000/svg"
   xmlns="http://www.w3.org/2000/svg"
   xmlns:sodipodi="http://sodipodi.sourceforge.net/DTD/sodipodi-0.dtd"
   xmlns:inkscape="http://www.inkscape.org/namespaces/inkscape"
   width="524.40942"
   height="372.04724"
   id="svg4693"
   version="1.1"
   inkscape:version="0.48.4 r9939"
   sodipodi:docname="branch.svg">
  <defs
     id="defs4695">
    <marker
       inkscape:stockid="Arrow2Lend"
       orient="auto"
       refY="0"
       refX="0"
       id="Arrow2Lend"
       style="overflow:visible">
      <path
         inkscape:connector-curvature="0"
         id="path3801"
         style="fill-rule:evenodd;stroke-width:0.625;stroke-linejoin:round"
         d="M 8.7185878,4.0337352 -2.2072895,0.01601326 8.7185884,-4.0017078 c -1.7454984,2.3720609 -1.7354408,5.6174519 -6e-7,8.035443 z"
         transform="matrix(-1.1,0,0,-1.1,-1.1,0)" />
    </marker>
    <marker
       inkscape:stockid="Arrow2Lend"
       orient="auto"
       refY="0"
       refX="0"
       id="marker4713"
       style="overflow:visible">
      <path
         inkscape:connector-curvature="0"
         id="path4715"
         style="fill-rule:evenodd;stroke-width:0.625;stroke-linejoin:round"
         d="M 8.7185878,4.0337352 -2.2072895,0.01601326 8.7185884,-4.0017078 c -1.7454984,2.3720609 -1.7354408,5.6174519 -6e-7,8.035443 z"
         transform="matrix(-1.1,0,0,-1.1,-1.1,0)" />
    </marker>
    <marker
       inkscape:stockid="Arrow2Lend"
       orient="auto"
       refY="0"
       refX="0"
       id="marker4717"
       style="overflow:visible">
      <path
         inkscape:connector-curvature="0"
         id="path4719"
         style="fill-rule:evenodd;stroke-width:0.625;stroke-linejoin:round"
         d="M 8.7185878,4.0337352 -2.2072895,0.01601326 8.7185884,-4.0017078 c -1.7454984,2.3720609 -1.7354408,5.6174519 -6e-7,8.035443 z"
         transform="matrix(-1.1,0,0,-1.1,-1.1,0)" />
    </marker>
    <marker
       inkscape:stockid="Arrow2Lend"
       orient="auto"
       refY="0"
       refX="0"
       id="Arrow2Lend-6"
       style="overflow:visible">
      <path
         inkscape:connector-curvature="0"
         id="path3801-3"
         style="fill-rule:evenodd;stroke-width:0.625;stroke-linejoin:round"
         d="M 8.7185878,4.0337352 -2.2072895,0.01601326 8.7185884,-4.0017078 c -1.7454984,2.3720609 -1.7354408,5.6174519 -6e-7,8.035443 z"
         transform="matrix(-1.1,0,0,-1.1,-1.1,0)" />
    </marker>
    <marker
       inkscape:stockid="Arrow2Lend"
       orient="auto"
       refY="0"
       refX="0"
       id="marker4771"
       style="overflow:visible">
      <path
         inkscape:connector-curvature="0"
         id="path4773"
         style="fill-rule:evenodd;stroke-width:0.625;stroke-linejoin:round"
         d="M 8.7185878,4.0337352 -2.2072895,0.01601326 8.7185884,-4.0017078 c -1.7454984,2.3720609 -1.7354408,5.6174519 -6e-7,8.035443 z"
         transform="matrix(-1.1,0,0,-1.1,-1.1,0)" />
    </marker>
    <marker
       inkscape:stockid="Arrow2Lend"
       orient="auto"
       refY="0"
       refX="0"
       id="marker4771-8"
       style="overflow:visible">
      <path
         inkscape:connector-curvature="0"
         id="path4773-0"
         style="fill-rule:evenodd;stroke-width:0.625;stroke-linejoin:round"
         d="M 8.7185878,4.0337352 -2.2072895,0.01601326 8.7185884,-4.0017078 c -1.7454984,2.3720609 -1.7354408,5.6174519 -6e-7,8.035443 z"
         transform="matrix(-1.1,0,0,-1.1,-1.1,0)" />
    </marker>
    <marker
       inkscape:stockid="Arrow2Lend"
       orient="auto"
       refY="0"
       refX="0"
       id="Arrow2Lend-7"
       style="overflow:visible">
      <path
         inkscape:connector-curvature="0"
         id="path3801-0"
         style="fill-rule:evenodd;stroke-width:0.625;stroke-linejoin:round"
         d="M 8.7185878,4.0337352 -2.2072895,0.01601326 8.7185884,-4.0017078 c -1.7454984,2.3720609 -1.7354408,5.6174519 -6e-7,8.035443 z"
         transform="matrix(-1.1,0,0,-1.1,-1.1,0)" />
    </marker>
  </defs>
  <sodipodi:namedview
     id="base"
     pagecolor="#ffffff"
     bordercolor="#666666"
     borderopacity="1.0"
     inkscape:pageopacity="0.0"
     inkscape:pageshadow="2"
     inkscape:zoom="0.98994949"
     inkscape:cx="206.90544"
     inkscape:cy="297.75718"
     inkscape:document-units="px"
     inkscape:current-layer="layer1"
     showgrid="true"
     inkscape:window-width="1600"
     inkscape:window-height="834"
     inkscape:window-x="0"
     inkscape:window-y="27"
     inkscape:window-maximized="1">
    <inkscape:grid
       type="xygrid"
       id="grid4035"
       empspacing="5"
       visible="true"
       enabled="true"
       snapvisiblegridlinesonly="true" />
  </sodipodi:namedview>
  <metadata
     id="metadata4698">
    <rdf:RDF>
      <cc:Work
         rdf:about="">
        <dc:format>image/svg+xml</dc:format>
        <dc:type
           rdf:resource="http://purl.org/dc/dcmitype/StillImage" />
        <dc:title></dc:title>
      </cc:Work>
    </rdf:RDF>
  </metadata>
  <g
     inkscape:label="Layer 1"
     inkscape:groupmode="layer"
     id="layer1"
     transform="translate(0,-680.31491)">
    <path
       style="fill:none;stroke:#26c71c;stroke-width:4;stroke-linecap:butt;stroke-linejoin:miter;stroke-miterlimit:4;stroke-opacity:1;stroke-dasharray:none"
       d="m 334.74136,825.35011 -16.16244,-4.04061 c 0,0 -14.14213,-7.07107 -4.04061,12.12183 10.10153,19.1929 20.20305,-8.08122 20.20305,-8.08122 z"
       id="path5917"
       inkscape:connector-curvature="0" />
    <path
       sodipodi:type="arc"
       style="fill:#bfc4ed;fill-opacity:1;fill-rule:evenodd;stroke:#3f4ec8;stroke-width:16;stroke-opacity:1"
       id="path2986"
       sodipodi:cx="152.85715"
       sodipodi:cy="236.6479"
       sodipodi:rx="55.714287"
       sodipodi:ry="55.714287"
       d="m 208.57143,236.6479 a 55.714287,55.714287 0 1 1 -111.42857,0 55.714287,55.714287 0 1 1 111.42857,0 z"
       transform="matrix(0,0.40545955,-0.40545955,0,226.37801,764.55624)" />
    <path
       sodipodi:type="arc"
       style="fill:#bfc4ed;fill-opacity:1;fill-rule:evenodd;stroke:#3f4ec8;stroke-width:16;stroke-opacity:1"
       id="path2986-0"
       sodipodi:cx="152.85715"
       sodipodi:cy="236.6479"
       sodipodi:rx="55.714287"
       sodipodi:ry="55.714287"
       d="m 208.57143,236.6479 a 55.714287,55.714287 0 1 1 -111.42857,0 55.714287,55.714287 0 1 1 111.42857,0 z"
       transform="matrix(0,0.40545955,-0.40545955,0,145.14871,765.92068)" />
    <path
       style="fill:none;stroke:#000000;stroke-width:1.5;stroke-linecap:butt;stroke-linejoin:miter;stroke-miterlimit:4;stroke-opacity:1;stroke-dasharray:none;marker-end:url(#Arrow2Lend)"
       d="m 104.47459,826.86753 -27.14323,0 -0.93598,0"
       id="path3774"
       inkscape:connector-curvature="0" />
    <path
       sodipodi:type="arc"
       style="fill:#bfc4ed;fill-opacity:1;fill-rule:evenodd;stroke:#3f4ec8;stroke-width:16;stroke-opacity:1"
       id="path2986-5"
       sodipodi:cx="152.85715"
       sodipodi:cy="236.6479"
       sodipodi:rx="55.714287"
       sodipodi:ry="55.714287"
       d="m 208.57143,236.6479 a 55.714287,55.714287 0 1 1 -111.42857,0 55.714287,55.714287 0 1 1 111.42857,0 z"
       transform="matrix(0,0.40545955,-0.40545955,0,307.87798,764.57982)" />
    <path
       style="fill:none;stroke:#000000;stroke-width:1.5;stroke-linecap:butt;stroke-linejoin:miter;stroke-miterlimit:4;stroke-opacity:1;stroke-dasharray:none;marker-end:url(#Arrow2Lend)"
       d="m 185.97456,826.8911 -27.14323,0 -0.93598,0"
       id="path3774-3"
       inkscape:connector-curvature="0" />
    <g
       id="g4614"
       transform="matrix(0,-1,1,0,-462.36212,1062.3622)">
      <path
         inkscape:connector-curvature="0"
         id="path5917-7"
         d="m 271.51266,758.3654 -16.16244,-4.04061 c 0,0 -14.14213,-7.07107 -4.04061,12.12183 10.10153,19.1929 20.20305,-8.08122 20.20305,-8.08122 z"
         style="fill:none;stroke:#26c71c;stroke-width:4;stroke-linecap:butt;stroke-linejoin:miter;stroke-miterlimit:4;stroke-opacity:1;stroke-dasharray:none" />
      <path
         inkscape:connector-curvature="0"
         id="path4282-0"
         d="m 298.64475,738.4039 67.17559,0 0,38.1077 -68.25906,0 -24.50848,-18.7803 c 0,0 26.93657,-22.41846 25.59195,-19.3274 z"
         style="fill:#bcf6bb;fill-opacity:1;fill-rule:nonzero;stroke:#26c71c;stroke-width:3.4000001;stroke-linecap:square;stroke-linejoin:round;stroke-miterlimit:4;stroke-opacity:1;stroke-dasharray:none;marker-start:none" />
      <text
         sodipodi:linespacing="595.00012%"
         id="text5975-5"
         y="762.36212"
         x="300"
         style="font-size:10px;font-style:normal;font-weight:normal;line-height:595.00012398%;letter-spacing:0px;word-spacing:0px;fill:#000000;fill-opacity:1;stroke:none;font-family:Sans"
         xml:space="preserve"><tspan
           style="font-size:18px;font-weight:bold;line-height:606.00013733%;-inkscape-font-specification:Sans Bold"
           y="762.36212"
           x="300"
           id="tspan5977-6"
           sodipodi:role="line">HEAD</tspan></text>
    </g>
    <path
       sodipodi:type="arc"
       style="fill:#bfc4ed;fill-opacity:1;fill-rule:evenodd;stroke:#3f4ec8;stroke-width:16;stroke-opacity:1"
       id="path2986-1"
       sodipodi:cx="152.85715"
       sodipodi:cy="236.6479"
       sodipodi:rx="55.714287"
       sodipodi:ry="55.714287"
       d="m 208.57143,236.6479 a 55.714287,55.714287 0 1 1 -111.42857,0 55.714287,55.714287 0 1 1 111.42857,0 z"
       transform="matrix(0,0.40545955,-0.40545955,0,389.59227,765.2941)" />
    <path
       style="fill:none;stroke:#000000;stroke-width:1.5;stroke-linecap:butt;stroke-linejoin:miter;stroke-miterlimit:4;stroke-opacity:1;stroke-dasharray:none;marker-end:url(#Arrow2Lend)"
       d="m 267.68885,827.60539 -27.14323,0 -0.93598,0"
       id="path3774-9"
       inkscape:connector-curvature="0" />
    <flowRoot
       xml:space="preserve"
       id="flowRoot5898"
       style="font-size:10px;font-style:normal;font-weight:normal;line-height:125%;letter-spacing:0px;word-spacing:0px;fill:#000000;fill-opacity:1;stroke:none;font-family:Sans"><flowRegion
         id="flowRegion5900"><rect
           id="rect5902"
           width="56.568542"
           height="11.111678"
           x="141.92644"
           y="268.98889" /></flowRegion><flowPara
         id="flowPara5904">Ver</flowPara></flowRoot>    <path
       style="fill:#bcf6bb;fill-opacity:1;fill-rule:nonzero;stroke:#26c71c;stroke-width:3.4000001;stroke-linecap:square;stroke-linejoin:round;stroke-miterlimit:4;stroke-opacity:1;stroke-dasharray:none;marker-start:none"
       d="m 361.87345,805.38861 67.17559,0 0,38.1077 -68.25906,0 -24.50848,-18.7803 c 0,0 26.93657,-22.41846 25.59195,-19.3274 z"
       id="path4282"
       inkscape:connector-curvature="0" />
    <text
       xml:space="preserve"
       style="font-size:10px;font-style:normal;font-weight:normal;line-height:595.00012398%;letter-spacing:0px;word-spacing:0px;fill:#000000;fill-opacity:1;stroke:none;font-family:Sans"
       x="353.2287"
       y="829.34686"
       id="text5975"
       sodipodi:linespacing="595.00012%"><tspan
         sodipodi:role="line"
         id="tspan5977"
         x="353.2287"
         y="829.34686"
         style="font-size:18px;font-weight:bold;line-height:606.00013733%;-inkscape-font-specification:Sans Bold">master</tspan></text>
    <path
       sodipodi:type="arc"
       style="fill:#f7e2e5;fill-opacity:1;fill-rule:evenodd;stroke:#c83f53;stroke-width:16;stroke-opacity:1"
       id="path2986-5-9"
       sodipodi:cx="152.85715"
       sodipodi:cy="236.6479"
       sodipodi:rx="55.714287"
       sodipodi:ry="55.714287"
       d="m 208.57143,236.6479 a 55.714287,55.714287 0 1 1 -111.42857,0 55.714287,55.714287 0 1 1 111.42857,0 z"
       transform="matrix(0,0.40545955,-0.40545955,0,375.76938,858.79792)" />
    <path
       style="fill:none;stroke:#000000;stroke-width:1.5;stroke-linecap:butt;stroke-linejoin:miter;stroke-miterlimit:4;stroke-opacity:1;stroke-dasharray:none;marker-end:url(#Arrow2Lend)"
       d="m 335.58025,921.82349 -27.14324,0 -0.93598,0"
       id="path3774-9-4"
       inkscape:connector-curvature="0" />
    <path
       style="fill:none;stroke:#000000;stroke-width:1.7689389;stroke-linecap:butt;stroke-linejoin:miter;stroke-miterlimit:4;stroke-opacity:1;stroke-dasharray:none;marker-start:none;marker-end:url(#marker4771)"
       d="M 261.8724,902.6062 C 228.97242,849.23085 228.97242,849.23085 228.97242,849.23085"
       id="path4802"
       inkscape:connector-curvature="0" />
    <path
       style="fill:none;stroke:#26c71c;stroke-width:4;stroke-linecap:butt;stroke-linejoin:miter;stroke-miterlimit:4;stroke-opacity:1;stroke-dasharray:none"
       d="m 399.51267,918.36535 -16.16243,-4.04061 c 0,0 -14.14213,-7.07107 -4.04061,12.12183 10.10152,19.1929 20.20304,-8.08122 20.20304,-8.08122 z"
       id="path5917-9"
       inkscape:connector-curvature="0" />
    <path
       sodipodi:type="arc"
       style="fill:#f7e2e5;fill-opacity:1;fill-rule:evenodd;stroke:#c83f53;stroke-width:16;stroke-opacity:1"
       id="path2986-5-9-1"
       sodipodi:cx="152.85715"
       sodipodi:cy="236.6479"
       sodipodi:rx="55.714287"
       sodipodi:ry="55.714287"
       d="m 208.57143,236.6479 a 55.714287,55.714287 0 1 1 -111.42857,0 55.714287,55.714287 0 1 1 111.42857,0 z"
       transform="matrix(0,0.40545955,-0.40545955,0,456.07979,860.16522)"
       inkscape:transform-center-x="25.833566"
       inkscape:transform-center-y="-44.446712" />
    <path
       style="fill:#bcf6bb;fill-opacity:1;fill-rule:nonzero;stroke:#26c71c;stroke-width:3.4000001;stroke-linecap:square;stroke-linejoin:round;stroke-miterlimit:4;stroke-opacity:1;stroke-dasharray:none;marker-start:none"
       d="m 428.32899,898.43064 71.52508,0 0,38.0537 -72.67871,0 -26.09534,-18.75368 c 0,0 28.68065,-22.3867 27.24897,-19.30002 z"
       id="path4282-7"
       inkscape:connector-curvature="0" />
    <text
       xml:space="preserve"
       style="font-size:10px;font-style:normal;font-weight:normal;line-height:595.00012398%;letter-spacing:0px;word-spacing:0px;fill:#000000;fill-opacity:1;stroke:none;font-family:Sans"
       x="420"
       y="922.36212"
       id="text5975-2"
       sodipodi:linespacing="595.00012%"><tspan
         sodipodi:role="line"
         id="tspan5977-2"
         x="420"
         y="922.36212"
         style="font-size:18px;font-weight:bold;line-height:606.00013733%;-inkscape-font-specification:Sans Bold">feature</tspan></text>
  </g>
</svg>
