<?xml version="1.0" encoding="UTF-8" standalone="no"?>
<!-- Created with Inkscape (http://www.inkscape.org/) -->

<svg
   xmlns:dc="http://purl.org/dc/elements/1.1/"
   xmlns:cc="http://creativecommons.org/ns#"
   xmlns:rdf="http://www.w3.org/1999/02/22-rdf-syntax-ns#"
   xmlns:svg="http://www.w3.org/2000/svg"
   xmlns="http://www.w3.org/2000/svg"
   xmlns:sodipodi="http://sodipodi.sourceforge.net/DTD/sodipodi-0.dtd"
   xmlns:inkscape="http://www.inkscape.org/namespaces/inkscape"
   width="524.40942"
   height="372.04724"
   id="svg4693"
   version="1.1"
   inkscape:version="0.48.4 r9939"
   sodipodi:docname="cherry-pick-2.svg">
  <defs
     id="defs4695">
    <marker
       inkscape:stockid="Arrow2Lend"
       orient="auto"
       refY="0"
       refX="0"
       id="Arrow2Lend"
       style="overflow:visible">
      <path
         inkscape:connector-curvature="0"
         id="path3801"
         style="fill-rule:evenodd;stroke-width:0.625;stroke-linejoin:round"
         d="M 8.7185878,4.0337352 -2.2072895,0.01601326 8.7185884,-4.0017078 c -1.7454984,2.3720609 -1.7354408,5.6174519 -6e-7,8.035443 z"
         transform="matrix(-1.1,0,0,-1.1,-1.1,0)" />
    </marker>
    <marker
       inkscape:stockid="Arrow2Lend"
       orient="auto"
       refY="0"
       refX="0"
       id="marker4713"
       style="overflow:visible">
      <path
         inkscape:connector-curvature="0"
         id="path4715"
         style="fill-rule:evenodd;stroke-width:0.625;stroke-linejoin:round"
         d="M 8.7185878,4.0337352 -2.2072895,0.01601326 8.7185884,-4.0017078 c -1.7454984,2.3720609 -1.7354408,5.6174519 -6e-7,8.035443 z"
         transform="matrix(-1.1,0,0,-1.1,-1.1,0)" />
    </marker>
    <marker
       inkscape:stockid="Arrow2Lend"
       orient="auto"
       refY="0"
       refX="0"
       id="marker4717"
       style="overflow:visible">
      <path
         inkscape:connector-curvature="0"
         id="path4719"
         style="fill-rule:evenodd;stroke-width:0.625;stroke-linejoin:round"
         d="M 8.7185878,4.0337352 -2.2072895,0.01601326 8.7185884,-4.0017078 c -1.7454984,2.3720609 -1.7354408,5.6174519 -6e-7,8.035443 z"
         transform="matrix(-1.1,0,0,-1.1,-1.1,0)" />
    </marker>
    <marker
       inkscape:stockid="Arrow2Lend"
       orient="auto"
       refY="0"
       refX="0"
       id="Arrow2Lend-6"
       style="overflow:visible">
      <path
         inkscape:connector-curvature="0"
         id="path3801-3"
         style="fill-rule:evenodd;stroke-width:0.625;stroke-linejoin:round"
         d="M 8.7185878,4.0337352 -2.2072895,0.01601326 8.7185884,-4.0017078 c -1.7454984,2.3720609 -1.7354408,5.6174519 -6e-7,8.035443 z"
         transform="matrix(-1.1,0,0,-1.1,-1.1,0)" />
    </marker>
    <marker
       inkscape:stockid="Arrow2Lend"
       orient="auto"
       refY="0"
       refX="0"
       id="marker4771"
       style="overflow:visible">
      <path
         inkscape:connector-curvature="0"
         id="path4773"
         style="fill-rule:evenodd;stroke-width:0.625;stroke-linejoin:round"
         d="M 8.7185878,4.0337352 -2.2072895,0.01601326 8.7185884,-4.0017078 c -1.7454984,2.3720609 -1.7354408,5.6174519 -6e-7,8.035443 z"
         transform="matrix(-1.1,0,0,-1.1,-1.1,0)" />
    </marker>
    <marker
       inkscape:stockid="Arrow2Lend"
       orient="auto"
       refY="0"
       refX="0"
       id="marker4771-8"
       style="overflow:visible">
      <path
         inkscape:connector-curvature="0"
         id="path4773-0"
         style="fill-rule:evenodd;stroke-width:0.625;stroke-linejoin:round"
         d="M 8.7185878,4.0337352 -2.2072895,0.01601326 8.7185884,-4.0017078 c -1.7454984,2.3720609 -1.7354408,5.6174519 -6e-7,8.035443 z"
         transform="matrix(-1.1,0,0,-1.1,-1.1,0)" />
    </marker>
    <marker
       inkscape:stockid="Arrow2Lend"
       orient="auto"
       refY="0"
       refX="0"
       id="Arrow2Lend-7"
       style="overflow:visible">
      <path
         inkscape:connector-curvature="0"
         id="path3801-0"
         style="fill-rule:evenodd;stroke-width:0.625;stroke-linejoin:round"
         d="M 8.7185878,4.0337352 -2.2072895,0.01601326 8.7185884,-4.0017078 c -1.7454984,2.3720609 -1.7354408,5.6174519 -6e-7,8.035443 z"
         transform="matrix(-1.1,0,0,-1.1,-1.1,0)" />
    </marker>
    <marker
       inkscape:stockid="Arrow2Lend"
       orient="auto"
       refY="0"
       refX="0"
       id="Arrow2Lend-61"
       style="overflow:visible">
      <path
         inkscape:connector-curvature="0"
         id="path3801-7"
         style="fill-rule:evenodd;stroke-width:0.625;stroke-linejoin:round"
         d="M 8.7185878,4.0337352 -2.2072895,0.01601326 8.7185884,-4.0017078 c -1.7454984,2.3720609 -1.7354408,5.6174519 -6e-7,8.035443 z"
         transform="matrix(-1.1,0,0,-1.1,-1.1,0)" />
    </marker>
    <marker
       inkscape:stockid="Arrow2Lend"
       orient="auto"
       refY="0"
       refX="0"
       id="Arrow2Lend-0"
       style="overflow:visible">
      <path
         inkscape:connector-curvature="0"
         id="path3801-39"
         style="fill-rule:evenodd;stroke-width:0.625;stroke-linejoin:round"
         d="M 8.7185878,4.0337352 -2.2072895,0.01601326 8.7185884,-4.0017078 c -1.7454984,2.3720609 -1.7354408,5.6174519 -6e-7,8.035443 z"
         transform="matrix(-1.1,0,0,-1.1,-1.1,0)" />
    </marker>
  </defs>
  <sodipodi:namedview
     id="base"
     pagecolor="#ffffff"
     bordercolor="#666666"
     borderopacity="1.0"
     inkscape:pageopacity="0.0"
     inkscape:pageshadow="2"
     inkscape:zoom="1.4"
     inkscape:cx="198.90151"
     inkscape:cy="197.71294"
     inkscape:document-units="px"
     inkscape:current-layer="layer1"
     showgrid="true"
     inkscape:window-width="1600"
     inkscape:window-height="834"
     inkscape:window-x="0"
     inkscape:window-y="27"
     inkscape:window-maximized="1">
    <inkscape:grid
       type="xygrid"
       id="grid4035"
       empspacing="5"
       visible="true"
       enabled="true"
       snapvisiblegridlinesonly="true" />
  </sodipodi:namedview>
  <metadata
     id="metadata4698">
    <rdf:RDF>
      <cc:Work
         rdf:about="">
        <dc:format>image/svg+xml</dc:format>
        <dc:type
           rdf:resource="http://purl.org/dc/dcmitype/StillImage" />
        <dc:title />
      </cc:Work>
    </rdf:RDF>
  </metadata>
  <g
     inkscape:label="Layer 1"
     inkscape:groupmode="layer"
     id="layer1"
     transform="translate(0,-680.31491)">
    <path
       sodipodi:type="arc"
       style="fill:#bfc4ed;fill-opacity:1;fill-rule:evenodd;stroke:#3f4ec8;stroke-width:16;stroke-opacity:1"
       id="path2986"
       sodipodi:cx="152.85715"
       sodipodi:cy="236.6479"
       sodipodi:rx="55.714287"
       sodipodi:ry="55.714287"
       d="m 208.57143,236.6479 c 0,30.77015 -24.94413,55.71429 -55.71428,55.71429 -30.77015,0 -55.71429,-24.94414 -55.71429,-55.71429 0,-30.77015 24.94414,-55.71428 55.71429,-55.71428 30.77015,0 55.71428,24.94413 55.71428,55.71428 z"
       transform="matrix(0,0.40545955,-0.40545955,0,226.37801,766.55624)" />
    <path
       sodipodi:type="arc"
       style="fill:#bfc4ed;fill-opacity:1;fill-rule:evenodd;stroke:#3f4ec8;stroke-width:16;stroke-opacity:1"
       id="path2986-0"
       sodipodi:cx="152.85715"
       sodipodi:cy="236.6479"
       sodipodi:rx="55.714287"
       sodipodi:ry="55.714287"
       d="m 208.57143,236.6479 c 0,30.77015 -24.94413,55.71429 -55.71428,55.71429 -30.77015,0 -55.71429,-24.94414 -55.71429,-55.71429 0,-30.77015 24.94414,-55.71428 55.71429,-55.71428 30.77015,0 55.71428,24.94413 55.71428,55.71428 z"
       transform="matrix(0,0.40545955,-0.40545955,0,145.14871,767.92068)" />
    <path
       style="fill:none;stroke:#000000;stroke-width:1.5;stroke-linecap:butt;stroke-linejoin:miter;stroke-miterlimit:4;stroke-opacity:1;stroke-dasharray:none;marker-end:url(#Arrow2Lend)"
       d="m 104.47459,828.86753 -27.14323,0 -0.93598,0"
       id="path3774"
       inkscape:connector-curvature="0" />
    <path
       sodipodi:type="arc"
       style="fill:#bfc4ed;fill-opacity:1;fill-rule:evenodd;stroke:#3f4ec8;stroke-width:16;stroke-opacity:1"
       id="path2986-5"
       sodipodi:cx="152.85715"
       sodipodi:cy="236.6479"
       sodipodi:rx="55.714287"
       sodipodi:ry="55.714287"
       d="m 208.57143,236.6479 c 0,30.77015 -24.94413,55.71429 -55.71428,55.71429 -30.77015,0 -55.71429,-24.94414 -55.71429,-55.71429 0,-30.77015 24.94414,-55.71428 55.71429,-55.71428 30.77015,0 55.71428,24.94413 55.71428,55.71428 z"
       transform="matrix(0,0.40545955,-0.40545955,0,307.87798,766.57982)" />
    <path
       style="fill:none;stroke:#000000;stroke-width:1.5;stroke-linecap:butt;stroke-linejoin:miter;stroke-miterlimit:4;stroke-opacity:1;stroke-dasharray:none;marker-end:url(#Arrow2Lend)"
       d="m 185.97456,828.8911 -27.14323,0 -0.93598,0"
       id="path3774-3"
       inkscape:connector-curvature="0" />
    <g
       id="g4713"
       transform="matrix(0,-1,1,0,-455.34686,1127.5908)">
      <path
         inkscape:connector-curvature="0"
         id="path5917"
         d="m 334.74136,825.35011 -16.16244,-4.04061 c 0,0 -14.14213,-7.07107 -4.04061,12.12183 10.10153,19.1929 20.20305,-8.08122 20.20305,-8.08122 z"
         style="fill:none;stroke:#26c71c;stroke-width:4;stroke-linecap:butt;stroke-linejoin:miter;stroke-miterlimit:4;stroke-opacity:1;stroke-dasharray:none" />
      <path
         inkscape:connector-curvature="0"
         id="path4282"
         d="m 361.87345,805.38861 67.17559,0 0,38.1077 -68.25906,0 -24.50848,-18.7803 c 0,0 26.93657,-22.41846 25.59195,-19.3274 z"
         style="fill:#bcf6bb;fill-opacity:1;fill-rule:nonzero;stroke:#26c71c;stroke-width:3.4000001;stroke-linecap:square;stroke-linejoin:round;stroke-miterlimit:4;stroke-opacity:1;stroke-dasharray:none;marker-start:none" />
      <text
         sodipodi:linespacing="595.00012%"
         id="text5975"
         y="829.34686"
         x="353.2287"
         style="font-size:10px;font-style:normal;font-weight:normal;line-height:595.00012398%;letter-spacing:0px;word-spacing:0px;fill:#000000;fill-opacity:1;stroke:none;font-family:Sans"
         xml:space="preserve"><tspan
           style="font-size:18px;font-weight:bold;line-height:606.00013733%;-inkscape-font-specification:Sans Bold"
           y="829.34686"
           x="353.2287"
           id="tspan5977"
           sodipodi:role="line">master</tspan></text>
    </g>
    <path
       sodipodi:type="arc"
       style="fill:#bfc4ed;fill-opacity:1;fill-rule:evenodd;stroke:#3f4ec8;stroke-width:16;stroke-opacity:1"
       id="path2986-1"
       sodipodi:cx="152.85715"
       sodipodi:cy="236.6479"
       sodipodi:rx="55.714287"
       sodipodi:ry="55.714287"
       d="m 208.57143,236.6479 c 0,30.77015 -24.94413,55.71429 -55.71428,55.71429 -30.77015,0 -55.71429,-24.94414 -55.71429,-55.71429 0,-30.77015 24.94414,-55.71428 55.71429,-55.71428 30.77015,0 55.71428,24.94413 55.71428,55.71428 z"
       transform="matrix(0,0.40545955,-0.40545955,0,389.59227,767.2941)" />
    <path
       style="fill:none;stroke:#000000;stroke-width:1.5;stroke-linecap:butt;stroke-linejoin:miter;stroke-miterlimit:4;stroke-opacity:1;stroke-dasharray:none;marker-end:url(#Arrow2Lend)"
       d="m 267.68885,829.60539 -27.14323,0 -0.93598,0"
       id="path3774-9"
       inkscape:connector-curvature="0" />
    <flowRoot
       xml:space="preserve"
       id="flowRoot5898"
       style="font-size:10px;font-style:normal;font-weight:normal;line-height:125%;letter-spacing:0px;word-spacing:0px;fill:#000000;fill-opacity:1;stroke:none;font-family:Sans"
       transform="translate(0,14)"><flowRegion
         id="flowRegion5900"><rect
           id="rect5902"
           width="56.568542"
           height="11.111678"
           x="141.92644"
           y="268.98889" /></flowRegion><flowPara
         id="flowPara5904">Ver</flowPara></flowRoot>    <path
       sodipodi:type="arc"
       style="fill:#f7e2e5;fill-opacity:1;fill-rule:evenodd;stroke:#c83f53;stroke-width:16;stroke-opacity:1"
       id="path2986-5-9"
       sodipodi:cx="152.85715"
       sodipodi:cy="236.6479"
       sodipodi:rx="55.714287"
       sodipodi:ry="55.714287"
       d="m 208.57143,236.6479 c 0,30.77015 -24.94413,55.71429 -55.71428,55.71429 -30.77015,0 -55.71429,-24.94414 -55.71429,-55.71429 0,-30.77015 24.94414,-55.71428 55.71429,-55.71428 30.77015,0 55.71428,24.94413 55.71428,55.71428 z"
       transform="matrix(0,0.40545955,-0.40545955,0,375.76938,860.79792)" />
    <path
       style="fill:none;stroke:#000000;stroke-width:1.5;stroke-linecap:butt;stroke-linejoin:miter;stroke-miterlimit:4;stroke-opacity:1;stroke-dasharray:none;marker-end:url(#Arrow2Lend)"
       d="m 335.58025,923.82349 -27.14324,0 -0.93598,0"
       id="path3774-9-4"
       inkscape:connector-curvature="0" />
    <path
       style="fill:none;stroke:#000000;stroke-width:1.7689389;stroke-linecap:butt;stroke-linejoin:miter;stroke-miterlimit:4;stroke-opacity:1;stroke-dasharray:none;marker-start:none;marker-end:url(#marker4771)"
       d="M 261.8724,904.6062 C 228.97242,851.23085 228.97242,851.23085 228.97242,851.23085"
       id="path4802"
       inkscape:connector-curvature="0" />
    <path
       sodipodi:type="arc"
       style="fill:#d7f4d9;fill-opacity:1;fill-rule:evenodd;stroke:#3fc84b;stroke-width:16;stroke-opacity:1"
       id="path2986-5-9-1"
       sodipodi:cx="152.85715"
       sodipodi:cy="236.6479"
       sodipodi:rx="55.714287"
       sodipodi:ry="55.714287"
       d="m 208.57143,236.6479 c 0,30.77015 -24.94413,55.71429 -55.71428,55.71429 -30.77015,0 -55.71429,-24.94414 -55.71429,-55.71429 0,-30.77015 24.94414,-55.71428 55.71429,-55.71428 30.77015,0 55.71428,24.94413 55.71428,55.71428 z"
       transform="matrix(0,0.40545955,-0.40545955,0,456.07979,862.16522)"
       inkscape:transform-center-x="25.833566"
       inkscape:transform-center-y="-44.446712" />
    <path
       style="fill:none;stroke:#000000;stroke-width:1.5;stroke-linecap:butt;stroke-linejoin:miter;stroke-miterlimit:4;stroke-opacity:1;stroke-dasharray:none;marker-end:url(#Arrow2Lend)"
       d="m 415.48383,923.82349 -27.14324,0 -0.93598,0"
       id="path3774-9-4-0"
       inkscape:connector-curvature="0" />
    <path
       sodipodi:type="arc"
       style="fill:#f7e2e5;fill-opacity:1;fill-rule:evenodd;stroke:#c83f53;stroke-width:16;stroke-opacity:1"
       id="path2986-5-9-1-3"
       sodipodi:cx="152.85715"
       sodipodi:cy="236.6479"
       sodipodi:rx="55.714287"
       sodipodi:ry="55.714287"
       d="m 208.57143,236.6479 c 0,30.77015 -24.94413,55.71429 -55.71428,55.71429 -30.77015,0 -55.71429,-24.94414 -55.71429,-55.71429 0,-30.77015 24.94414,-55.71428 55.71429,-55.71428 30.77015,0 55.71428,24.94413 55.71428,55.71428 z"
       transform="matrix(0,0.40545955,-0.40545955,0,535.98337,862.16522)"
       inkscape:transform-center-x="25.833566"
       inkscape:transform-center-y="-44.446712" />
    <path
       style="fill:none;stroke:#000000;stroke-width:1.5;stroke-linecap:butt;stroke-linejoin:miter;stroke-miterlimit:4;stroke-opacity:1;stroke-dasharray:none;marker-end:url(#Arrow2Lend)"
       d="m 349.16782,829.22704 -27.14324,0 -0.93598,0"
       id="path3774-9-4-6"
       inkscape:connector-curvature="0" />
    <path
       sodipodi:type="arc"
       style="fill:#f3d7f4;fill-opacity:1;fill-rule:evenodd;stroke:#c43fc8;stroke-width:16;stroke-opacity:1"
       id="path2986-5-9-1-7"
       sodipodi:cx="152.85715"
       sodipodi:cy="236.6479"
       sodipodi:rx="55.714287"
       sodipodi:ry="55.714287"
       d="m 208.57143,236.6479 c 0,30.77015 -24.94413,55.71429 -55.71428,55.71429 -30.77015,0 -55.71429,-24.94414 -55.71429,-55.71429 0,-30.77015 24.94414,-55.71428 55.71429,-55.71428 30.77015,0 55.71428,24.94413 55.71428,55.71428 z"
       transform="matrix(0,0.40545955,-0.40545955,0,469.66736,767.56877)"
       inkscape:transform-center-x="25.833566"
       inkscape:transform-center-y="-44.446712" />
    <path
       sodipodi:type="star"
       style="fill:#f3d7f4;fill-opacity:1;fill-rule:evenodd;stroke:#c43fc8;stroke-width:16;stroke-opacity:1"
       id="path3919"
       sodipodi:sides="5"
       sodipodi:cx="370"
       sodipodi:cy="132.04724"
       sodipodi:r1="5"
       sodipodi:r2="0"
       sodipodi:arg1="1.5707963"
       sodipodi:arg2="0"
       inkscape:flatsided="false"
       inkscape:rounded="0"
       inkscape:randomized="0"
       d="m 370,137.04724 0,-5 -4.75528,1.54509 4.75528,-1.54509 -2.93893,-4.04508 2.93893,4.04508 2.93893,-4.04508 -2.93893,4.04508 4.75528,1.54509 L 370,132.04724 z"
       transform="translate(3.7880721,697.34537)"
       inkscape:transform-center-y="0.47745751" />
    <path
       style="fill:none;stroke:#ee1111;stroke-width:4;stroke-linecap:butt;stroke-linejoin:miter;stroke-miterlimit:4;stroke-opacity:1;stroke-dasharray:8, 8;stroke-dashoffset:0"
       d="m 370,856.36215 -10,40"
       id="path3932"
       inkscape:connector-type="polyline"
       inkscape:connector-curvature="0" />
  </g>
</svg>
