<?xml version="1.0" encoding="UTF-8" standalone="no"?>
<!-- Created with Inkscape (http://www.inkscape.org/) -->

<svg
   xmlns:dc="http://purl.org/dc/elements/1.1/"
   xmlns:cc="http://creativecommons.org/ns#"
   xmlns:rdf="http://www.w3.org/1999/02/22-rdf-syntax-ns#"
   xmlns:svg="http://www.w3.org/2000/svg"
   xmlns="http://www.w3.org/2000/svg"
   xmlns:sodipodi="http://sodipodi.sourceforge.net/DTD/sodipodi-0.dtd"
   xmlns:inkscape="http://www.inkscape.org/namespaces/inkscape"
   width="524.40942"
   height="372.04724"
   id="svg4693"
   version="1.1"
   inkscape:version="0.48.4 r9939"
   sodipodi:docname="linear-history.svg">
  <defs
     id="defs4695">
    <marker
       inkscape:stockid="Arrow2Lend"
       orient="auto"
       refY="0"
       refX="0"
       id="Arrow2Lend"
       style="overflow:visible">
      <path
         inkscape:connector-curvature="0"
         id="path3801"
         style="fill-rule:evenodd;stroke-width:0.625;stroke-linejoin:round"
         d="M 8.7185878,4.0337352 -2.2072895,0.01601326 8.7185884,-4.0017078 c -1.7454984,2.3720609 -1.7354408,5.6174519 -6e-7,8.035443 z"
         transform="matrix(-1.1,0,0,-1.1,-1.1,0)" />
    </marker>
    <marker
       inkscape:stockid="Arrow2Lend"
       orient="auto"
       refY="0"
       refX="0"
       id="marker4713"
       style="overflow:visible">
      <path
         inkscape:connector-curvature="0"
         id="path4715"
         style="fill-rule:evenodd;stroke-width:0.625;stroke-linejoin:round"
         d="M 8.7185878,4.0337352 -2.2072895,0.01601326 8.7185884,-4.0017078 c -1.7454984,2.3720609 -1.7354408,5.6174519 -6e-7,8.035443 z"
         transform="matrix(-1.1,0,0,-1.1,-1.1,0)" />
    </marker>
    <marker
       inkscape:stockid="Arrow2Lend"
       orient="auto"
       refY="0"
       refX="0"
       id="marker4717"
       style="overflow:visible">
      <path
         inkscape:connector-curvature="0"
         id="path4719"
         style="fill-rule:evenodd;stroke-width:0.625;stroke-linejoin:round"
         d="M 8.7185878,4.0337352 -2.2072895,0.01601326 8.7185884,-4.0017078 c -1.7454984,2.3720609 -1.7354408,5.6174519 -6e-7,8.035443 z"
         transform="matrix(-1.1,0,0,-1.1,-1.1,0)" />
    </marker>
    <marker
       inkscape:stockid="Arrow2Lend"
       orient="auto"
       refY="0"
       refX="0"
       id="Arrow2Lend-6"
       style="overflow:visible">
      <path
         inkscape:connector-curvature="0"
         id="path3801-3"
         style="fill-rule:evenodd;stroke-width:0.625;stroke-linejoin:round"
         d="M 8.7185878,4.0337352 -2.2072895,0.01601326 8.7185884,-4.0017078 c -1.7454984,2.3720609 -1.7354408,5.6174519 -6e-7,8.035443 z"
         transform="matrix(-1.1,0,0,-1.1,-1.1,0)" />
    </marker>
    <marker
       inkscape:stockid="Arrow2Lend"
       orient="auto"
       refY="0"
       refX="0"
       id="marker4771"
       style="overflow:visible">
      <path
         inkscape:connector-curvature="0"
         id="path4773"
         style="fill-rule:evenodd;stroke-width:0.625;stroke-linejoin:round"
         d="M 8.7185878,4.0337352 -2.2072895,0.01601326 8.7185884,-4.0017078 c -1.7454984,2.3720609 -1.7354408,5.6174519 -6e-7,8.035443 z"
         transform="matrix(-1.1,0,0,-1.1,-1.1,0)" />
    </marker>
    <marker
       inkscape:stockid="Arrow2Lend"
       orient="auto"
       refY="0"
       refX="0"
       id="Arrow2Lend-2"
       style="overflow:visible">
      <path
         inkscape:connector-curvature="0"
         id="path3801-1"
         style="fill-rule:evenodd;stroke-width:0.625;stroke-linejoin:round"
         d="M 8.7185878,4.0337352 -2.2072895,0.01601326 8.7185884,-4.0017078 c -1.7454984,2.3720609 -1.7354408,5.6174519 -6e-7,8.035443 z"
         transform="matrix(-1.1,0,0,-1.1,-1.1,0)" />
    </marker>
    <marker
       inkscape:stockid="Arrow2Lend"
       orient="auto"
       refY="0"
       refX="0"
       id="marker3013"
       style="overflow:visible">
      <path
         inkscape:connector-curvature="0"
         id="path3015"
         style="fill-rule:evenodd;stroke-width:0.625;stroke-linejoin:round"
         d="M 8.7185878,4.0337352 -2.2072895,0.01601326 8.7185884,-4.0017078 c -1.7454984,2.3720609 -1.7354408,5.6174519 -6e-7,8.035443 z"
         transform="matrix(-1.1,0,0,-1.1,-1.1,0)" />
    </marker>
  </defs>
  <sodipodi:namedview
     id="base"
     pagecolor="#ffffff"
     bordercolor="#666666"
     borderopacity="1.0"
     inkscape:pageopacity="0"
     inkscape:pageshadow="2"
     inkscape:zoom="0.9899495"
     inkscape:cx="297.97915"
     inkscape:cy="300.91992"
     inkscape:document-units="px"
     inkscape:current-layer="layer1"
     showgrid="true"
     inkscape:window-width="799"
     inkscape:window-height="833"
     inkscape:window-x="799"
     inkscape:window-y="27"
     inkscape:window-maximized="0"
     inkscape:showpageshadow="false"
     showborder="true">
    <inkscape:grid
       type="xygrid"
       id="grid2999"
       empspacing="5"
       visible="true"
       enabled="true"
       snapvisiblegridlinesonly="true" />
  </sodipodi:namedview>
  <metadata
     id="metadata4698">
    <rdf:RDF>
      <cc:Work
         rdf:about="">
        <dc:format>image/svg+xml</dc:format>
        <dc:type
           rdf:resource="http://purl.org/dc/dcmitype/StillImage" />
        <dc:title />
      </cc:Work>
    </rdf:RDF>
  </metadata>
  <g
     inkscape:label="Layer 1"
     inkscape:groupmode="layer"
     id="layer1"
     transform="translate(0,-680.31491)">
    <path
       sodipodi:type="arc"
       style="fill:#bfc4ed;fill-opacity:1;fill-rule:evenodd;stroke:#3f4ec8;stroke-width:16;stroke-opacity:1"
       id="path2986"
       sodipodi:cx="152.85715"
       sodipodi:cy="236.6479"
       sodipodi:rx="55.714287"
       sodipodi:ry="55.714287"
       d="m 208.57143,236.6479 a 55.714287,55.714287 0 1 1 -111.42857,0 55.714287,55.714287 0 1 1 111.42857,0 z"
       transform="matrix(0,0.40545955,-0.40545955,0,232.62148,802.63238)" />
    <path
       sodipodi:type="arc"
       style="fill:#bfc4ed;fill-opacity:1;fill-rule:evenodd;stroke:#3f4ec8;stroke-width:16;stroke-opacity:1"
       id="path2986-0"
       sodipodi:cx="152.85715"
       sodipodi:cy="236.6479"
       sodipodi:rx="55.714287"
       sodipodi:ry="55.714287"
       d="m 208.57143,236.6479 a 55.714287,55.714287 0 1 1 -111.42857,0 55.714287,55.714287 0 1 1 111.42857,0 z"
       transform="matrix(0,0.40545955,-0.40545955,0,151.39218,803.99682)" />
    <path
       style="fill:none;stroke:#000000;stroke-width:1.5;stroke-linecap:butt;stroke-linejoin:miter;stroke-miterlimit:4;stroke-opacity:1;stroke-dasharray:none;marker-end:url(#Arrow2Lend)"
       d="m 110.71806,864.94367 -27.143228,0 -0.93598,0"
       id="path3774"
       inkscape:connector-curvature="0" />
    <path
       sodipodi:type="arc"
       style="fill:#bfc4ed;fill-opacity:1;fill-rule:evenodd;stroke:#3f4ec8;stroke-width:16;stroke-opacity:1"
       id="path2986-5"
       sodipodi:cx="152.85715"
       sodipodi:cy="236.6479"
       sodipodi:rx="55.714287"
       sodipodi:ry="55.714287"
       d="m 208.57143,236.6479 a 55.714287,55.714287 0 1 1 -111.42857,0 55.714287,55.714287 0 1 1 111.42857,0 z"
       transform="matrix(0,0.40545955,-0.40545955,0,314.12145,802.65596)" />
    <path
       style="fill:none;stroke:#000000;stroke-width:1.5;stroke-linecap:butt;stroke-linejoin:miter;stroke-miterlimit:4;stroke-opacity:1;stroke-dasharray:none;marker-end:url(#Arrow2Lend)"
       d="m 192.21803,864.96724 -27.14323,0 -0.93598,0"
       id="path3774-3"
       inkscape:connector-curvature="0" />
    <path
       sodipodi:type="arc"
       style="fill:#bfc4ed;fill-opacity:1;fill-rule:evenodd;stroke:#3f4ec8;stroke-width:16;stroke-opacity:1"
       id="path2986-1"
       sodipodi:cx="152.85715"
       sodipodi:cy="236.6479"
       sodipodi:rx="55.714287"
       sodipodi:ry="55.714287"
       d="m 208.57143,236.6479 a 55.714287,55.714287 0 1 1 -111.42857,0 55.714287,55.714287 0 1 1 111.42857,0 z"
       transform="matrix(0,0.40545955,-0.40545955,0,395.83574,803.37024)" />
    <path
       style="fill:none;stroke:#000000;stroke-width:1.5;stroke-linecap:butt;stroke-linejoin:miter;stroke-miterlimit:4;stroke-opacity:1;stroke-dasharray:none;marker-end:url(#Arrow2Lend)"
       d="m 273.93232,865.68153 -27.14323,0 -0.93598,0"
       id="path3774-9"
       inkscape:connector-curvature="0" />
    <path
       sodipodi:type="arc"
       style="fill:#bfc4ed;fill-opacity:1;fill-rule:evenodd;stroke:#3f4ec8;stroke-width:16;stroke-opacity:1"
       id="path2986-5-1"
       sodipodi:cx="152.85715"
       sodipodi:cy="236.6479"
       sodipodi:rx="55.714287"
       sodipodi:ry="55.714287"
       d="m 208.57143,236.6479 a 55.714287,55.714287 0 1 1 -111.42857,0 55.714287,55.714287 0 1 1 111.42857,0 z"
       transform="matrix(0,0.40545955,-0.40545955,0,477.97176,802.10012)" />
    <path
       style="fill:none;stroke:#000000;stroke-width:1.5;stroke-linecap:butt;stroke-linejoin:miter;stroke-miterlimit:4;stroke-opacity:1;stroke-dasharray:none;marker-end:url(#Arrow2Lend)"
       d="m 356.06834,864.4114 -27.14323,0 -0.93598,0"
       id="path3774-3-2"
       inkscape:connector-curvature="0" />
    <path
       sodipodi:type="arc"
       style="fill:#bfc4ed;fill-opacity:1;fill-rule:evenodd;stroke:#3f4ec8;stroke-width:16;stroke-opacity:1"
       id="path2986-1-9"
       sodipodi:cx="152.85715"
       sodipodi:cy="236.6479"
       sodipodi:rx="55.714287"
       sodipodi:ry="55.714287"
       d="m 208.57143,236.6479 a 55.714287,55.714287 0 1 1 -111.42857,0 55.714287,55.714287 0 1 1 111.42857,0 z"
       transform="matrix(0,0.40545955,-0.40545955,0,559.68605,802.8144)" />
    <path
       style="fill:none;stroke:#000000;stroke-width:1.5;stroke-linecap:butt;stroke-linejoin:miter;stroke-miterlimit:4;stroke-opacity:1;stroke-dasharray:none;marker-end:url(#Arrow2Lend)"
       d="m 437.78263,865.12569 -27.14323,0 -0.93598,0"
       id="path3774-9-4"
       inkscape:connector-curvature="0" />
  </g>
</svg>
