<?xml version="1.0" encoding="UTF-8" standalone="no"?>
<!-- Created with Inkscape (http://www.inkscape.org/) -->

<svg
   xmlns:dc="http://purl.org/dc/elements/1.1/"
   xmlns:cc="http://creativecommons.org/ns#"
   xmlns:rdf="http://www.w3.org/1999/02/22-rdf-syntax-ns#"
   xmlns:svg="http://www.w3.org/2000/svg"
   xmlns="http://www.w3.org/2000/svg"
   xmlns:sodipodi="http://sodipodi.sourceforge.net/DTD/sodipodi-0.dtd"
   xmlns:inkscape="http://www.inkscape.org/namespaces/inkscape"
   width="524.40942"
   height="372.04724"
   id="svg4693"
   version="1.1"
   inkscape:version="0.48.4 r9939"
   sodipodi:docname="rebase-3.svg">
  <defs
     id="defs4695">
    <marker
       inkscape:stockid="Arrow2Lend"
       orient="auto"
       refY="0"
       refX="0"
       id="Arrow2Lend"
       style="overflow:visible">
      <path
         inkscape:connector-curvature="0"
         id="path3801"
         style="fill-rule:evenodd;stroke-width:0.625;stroke-linejoin:round"
         d="M 8.7185878,4.0337352 -2.2072895,0.01601326 8.7185884,-4.0017078 c -1.7454984,2.3720609 -1.7354408,5.6174519 -6e-7,8.035443 z"
         transform="matrix(-1.1,0,0,-1.1,-1.1,0)" />
    </marker>
    <marker
       inkscape:stockid="Arrow2Lend"
       orient="auto"
       refY="0"
       refX="0"
       id="marker4713"
       style="overflow:visible">
      <path
         inkscape:connector-curvature="0"
         id="path4715"
         style="fill-rule:evenodd;stroke-width:0.625;stroke-linejoin:round"
         d="M 8.7185878,4.0337352 -2.2072895,0.01601326 8.7185884,-4.0017078 c -1.7454984,2.3720609 -1.7354408,5.6174519 -6e-7,8.035443 z"
         transform="matrix(-1.1,0,0,-1.1,-1.1,0)" />
    </marker>
    <marker
       inkscape:stockid="Arrow2Lend"
       orient="auto"
       refY="0"
       refX="0"
       id="marker4717"
       style="overflow:visible">
      <path
         inkscape:connector-curvature="0"
         id="path4719"
         style="fill-rule:evenodd;stroke-width:0.625;stroke-linejoin:round"
         d="M 8.7185878,4.0337352 -2.2072895,0.01601326 8.7185884,-4.0017078 c -1.7454984,2.3720609 -1.7354408,5.6174519 -6e-7,8.035443 z"
         transform="matrix(-1.1,0,0,-1.1,-1.1,0)" />
    </marker>
    <marker
       inkscape:stockid="Arrow2Lend"
       orient="auto"
       refY="0"
       refX="0"
       id="Arrow2Lend-6"
       style="overflow:visible">
      <path
         inkscape:connector-curvature="0"
         id="path3801-3"
         style="fill-rule:evenodd;stroke-width:0.625;stroke-linejoin:round"
         d="M 8.7185878,4.0337352 -2.2072895,0.01601326 8.7185884,-4.0017078 c -1.7454984,2.3720609 -1.7354408,5.6174519 -6e-7,8.035443 z"
         transform="matrix(-1.1,0,0,-1.1,-1.1,0)" />
    </marker>
    <marker
       inkscape:stockid="Arrow2Lend"
       orient="auto"
       refY="0"
       refX="0"
       id="marker4771"
       style="overflow:visible">
      <path
         inkscape:connector-curvature="0"
         id="path4773"
         style="fill-rule:evenodd;stroke-width:0.625;stroke-linejoin:round"
         d="M 8.7185878,4.0337352 -2.2072895,0.01601326 8.7185884,-4.0017078 c -1.7454984,2.3720609 -1.7354408,5.6174519 -6e-7,8.035443 z"
         transform="matrix(-1.1,0,0,-1.1,-1.1,0)" />
    </marker>
    <marker
       inkscape:stockid="Arrow2Lend"
       orient="auto"
       refY="0"
       refX="0"
       id="marker4771-8"
       style="overflow:visible">
      <path
         inkscape:connector-curvature="0"
         id="path4773-0"
         style="fill-rule:evenodd;stroke-width:0.625;stroke-linejoin:round"
         d="M 8.7185878,4.0337352 -2.2072895,0.01601326 8.7185884,-4.0017078 c -1.7454984,2.3720609 -1.7354408,5.6174519 -6e-7,8.035443 z"
         transform="matrix(-1.1,0,0,-1.1,-1.1,0)" />
    </marker>
    <marker
       inkscape:stockid="Arrow2Lend"
       orient="auto"
       refY="0"
       refX="0"
       id="Arrow2Lend-7"
       style="overflow:visible">
      <path
         inkscape:connector-curvature="0"
         id="path3801-0"
         style="fill-rule:evenodd;stroke-width:0.625;stroke-linejoin:round"
         d="M 8.7185878,4.0337352 -2.2072895,0.01601326 8.7185884,-4.0017078 c -1.7454984,2.3720609 -1.7354408,5.6174519 -6e-7,8.035443 z"
         transform="matrix(-1.1,0,0,-1.1,-1.1,0)" />
    </marker>
    <marker
       inkscape:stockid="Arrow2Lend"
       orient="auto"
       refY="0"
       refX="0"
       id="marker4771-7"
       style="overflow:visible">
      <path
         inkscape:connector-curvature="0"
         id="path4773-4"
         style="fill-rule:evenodd;stroke-width:0.625;stroke-linejoin:round"
         d="M 8.7185878,4.0337352 -2.2072895,0.01601326 8.7185884,-4.0017078 c -1.7454984,2.3720609 -1.7354408,5.6174519 -6e-7,8.035443 z"
         transform="matrix(-1.1,0,0,-1.1,-1.1,0)" />
    </marker>
    <marker
       inkscape:stockid="Arrow2Lend"
       orient="auto"
       refY="0"
       refX="0"
       id="Arrow2Lend-5"
       style="overflow:visible">
      <path
         inkscape:connector-curvature="0"
         id="path3801-4"
         style="fill-rule:evenodd;stroke-width:0.625;stroke-linejoin:round"
         d="M 8.7185878,4.0337352 -2.2072895,0.01601326 8.7185884,-4.0017078 c -1.7454984,2.3720609 -1.7354408,5.6174519 -6e-7,8.035443 z"
         transform="matrix(-1.1,0,0,-1.1,-1.1,0)" />
    </marker>
    <marker
       inkscape:stockid="Arrow2Lend"
       orient="auto"
       refY="0"
       refX="0"
       id="Arrow2Lend-9"
       style="overflow:visible">
      <path
         inkscape:connector-curvature="0"
         id="path3801-8"
         style="fill-rule:evenodd;stroke-width:0.625;stroke-linejoin:round"
         d="M 8.7185878,4.0337352 -2.2072895,0.01601326 8.7185884,-4.0017078 c -1.7454984,2.3720609 -1.7354408,5.6174519 -6e-7,8.035443 z"
         transform="matrix(-1.1,0,0,-1.1,-1.1,0)" />
    </marker>
    <marker
       inkscape:stockid="Arrow2Lend"
       orient="auto"
       refY="0"
       refX="0"
       id="marker4771-0"
       style="overflow:visible">
      <path
         inkscape:connector-curvature="0"
         id="path4773-1"
         style="fill-rule:evenodd;stroke-width:0.625;stroke-linejoin:round"
         d="M 8.7185878,4.0337352 -2.2072895,0.01601326 8.7185884,-4.0017078 c -1.7454984,2.3720609 -1.7354408,5.6174519 -6e-7,8.035443 z"
         transform="matrix(-1.1,0,0,-1.1,-1.1,0)" />
    </marker>
    <marker
       inkscape:stockid="Arrow2Lend"
       orient="auto"
       refY="0"
       refX="0"
       id="marker5374"
       style="overflow:visible">
      <path
         inkscape:connector-curvature="0"
         id="path5376"
         style="fill-rule:evenodd;stroke-width:0.625;stroke-linejoin:round"
         d="M 8.7185878,4.0337352 -2.2072895,0.01601326 8.7185884,-4.0017078 c -1.7454984,2.3720609 -1.7354408,5.6174519 -6e-7,8.035443 z"
         transform="matrix(-1.1,0,0,-1.1,-1.1,0)" />
    </marker>
    <marker
       inkscape:stockid="Arrow2Lend"
       orient="auto"
       refY="0"
       refX="0"
       id="marker5378"
       style="overflow:visible">
      <path
         inkscape:connector-curvature="0"
         id="path5380"
         style="fill-rule:evenodd;stroke-width:0.625;stroke-linejoin:round"
         d="M 8.7185878,4.0337352 -2.2072895,0.01601326 8.7185884,-4.0017078 c -1.7454984,2.3720609 -1.7354408,5.6174519 -6e-7,8.035443 z"
         transform="matrix(-1.1,0,0,-1.1,-1.1,0)" />
    </marker>
    <marker
       inkscape:stockid="Arrow2Lend"
       orient="auto"
       refY="0"
       refX="0"
       id="marker5382"
       style="overflow:visible">
      <path
         inkscape:connector-curvature="0"
         id="path5384"
         style="fill-rule:evenodd;stroke-width:0.625;stroke-linejoin:round"
         d="M 8.7185878,4.0337352 -2.2072895,0.01601326 8.7185884,-4.0017078 c -1.7454984,2.3720609 -1.7354408,5.6174519 -6e-7,8.035443 z"
         transform="matrix(-1.1,0,0,-1.1,-1.1,0)" />
    </marker>
    <marker
       inkscape:stockid="Arrow2Lend"
       orient="auto"
       refY="0"
       refX="0"
       id="marker5386"
       style="overflow:visible">
      <path
         inkscape:connector-curvature="0"
         id="path5388"
         style="fill-rule:evenodd;stroke-width:0.625;stroke-linejoin:round"
         d="M 8.7185878,4.0337352 -2.2072895,0.01601326 8.7185884,-4.0017078 c -1.7454984,2.3720609 -1.7354408,5.6174519 -6e-7,8.035443 z"
         transform="matrix(-1.1,0,0,-1.1,-1.1,0)" />
    </marker>
    <marker
       inkscape:stockid="Arrow2Lend"
       orient="auto"
       refY="0"
       refX="0"
       id="Arrow2Lend-51"
       style="overflow:visible">
      <path
         inkscape:connector-curvature="0"
         id="path3801-6"
         style="fill-rule:evenodd;stroke-width:0.625;stroke-linejoin:round"
         d="M 8.7185878,4.0337352 -2.2072895,0.01601326 8.7185884,-4.0017078 c -1.7454984,2.3720609 -1.7354408,5.6174519 -6e-7,8.035443 z"
         transform="matrix(-1.1,0,0,-1.1,-1.1,0)" />
    </marker>
  </defs>
  <sodipodi:namedview
     id="base"
     pagecolor="#ffffff"
     bordercolor="#666666"
     borderopacity="1.0"
     inkscape:pageopacity="0.0"
     inkscape:pageshadow="2"
     inkscape:zoom="0.70000001"
     inkscape:cx="186.6886"
     inkscape:cy="133.25481"
     inkscape:document-units="px"
     inkscape:current-layer="layer1"
     showgrid="true"
     inkscape:window-width="800"
     inkscape:window-height="834"
     inkscape:window-x="0"
     inkscape:window-y="27"
     inkscape:window-maximized="0">
    <inkscape:grid
       type="xygrid"
       id="grid4035"
       empspacing="5"
       visible="true"
       enabled="true"
       snapvisiblegridlinesonly="true" />
  </sodipodi:namedview>
  <metadata
     id="metadata4698">
    <rdf:RDF>
      <cc:Work
         rdf:about="">
        <dc:format>image/svg+xml</dc:format>
        <dc:type
           rdf:resource="http://purl.org/dc/dcmitype/StillImage" />
        <dc:title />
      </cc:Work>
    </rdf:RDF>
  </metadata>
  <g
     inkscape:label="Layer 1"
     inkscape:groupmode="layer"
     id="layer1"
     transform="translate(0,-680.31491)">
    <flowRoot
       xml:space="preserve"
       id="flowRoot5898"
       style="font-size:10px;font-style:normal;font-weight:normal;line-height:125%;letter-spacing:0px;word-spacing:0px;fill:#000000;fill-opacity:1;stroke:none;font-family:Sans"><flowRegion
         id="flowRegion5900"><rect
           id="rect5902"
           width="56.568542"
           height="11.111678"
           x="141.92644"
           y="268.98889" /></flowRegion><flowPara
         id="flowPara5904">Ver</flowPara></flowRoot>    <path
       sodipodi:type="arc"
       style="fill:#bfc4ed;fill-opacity:1;fill-rule:evenodd;stroke:#3f4ec8;stroke-width:16;stroke-opacity:1"
       id="path2986"
       sodipodi:cx="152.85715"
       sodipodi:cy="236.6479"
       sodipodi:rx="55.714287"
       sodipodi:ry="55.714287"
       d="m 208.57143,236.6479 a 55.714287,55.714287 0 1 1 -111.42857,0 55.714287,55.714287 0 1 1 111.42857,0 z"
       transform="matrix(0,0.40545955,-0.40545955,0,236.37801,776.55627)" />
    <path
       sodipodi:type="arc"
       style="fill:#bfc4ed;fill-opacity:1;fill-rule:evenodd;stroke:#3f4ec8;stroke-width:16;stroke-opacity:1"
       id="path2986-0"
       sodipodi:cx="152.85715"
       sodipodi:cy="236.6479"
       sodipodi:rx="55.714287"
       sodipodi:ry="55.714287"
       d="m 208.57143,236.6479 a 55.714287,55.714287 0 1 1 -111.42857,0 55.714287,55.714287 0 1 1 111.42857,0 z"
       transform="matrix(0,0.40545955,-0.40545955,0,155.14871,777.92071)" />
    <path
       style="fill:none;stroke:#000000;stroke-width:1.5;stroke-linecap:butt;stroke-linejoin:miter;stroke-miterlimit:4;stroke-opacity:1;stroke-dasharray:none;marker-end:url(#Arrow2Lend)"
       d="m 114.47459,838.86756 -27.143233,0 -0.93598,0"
       id="path3774"
       inkscape:connector-curvature="0" />
    <path
       sodipodi:type="arc"
       style="fill:#bfc4ed;fill-opacity:1;fill-rule:evenodd;stroke:#3f4ec8;stroke-width:16;stroke-opacity:1"
       id="path2986-5"
       sodipodi:cx="152.85715"
       sodipodi:cy="236.6479"
       sodipodi:rx="55.714287"
       sodipodi:ry="55.714287"
       d="m 208.57143,236.6479 a 55.714287,55.714287 0 1 1 -111.42857,0 55.714287,55.714287 0 1 1 111.42857,0 z"
       transform="matrix(0,0.40545955,-0.40545955,0,317.87798,776.57985)" />
    <path
       style="fill:none;stroke:#000000;stroke-width:1.5;stroke-linecap:butt;stroke-linejoin:miter;stroke-miterlimit:4;stroke-opacity:1;stroke-dasharray:none;marker-end:url(#Arrow2Lend)"
       d="m 195.97456,838.89113 -27.14323,0 -0.93598,0"
       id="path3774-3"
       inkscape:connector-curvature="0" />
    <g
       id="g4713"
       transform="matrix(0,-1,1,0,-529.34686,1137.5908)">
      <path
         inkscape:connector-curvature="0"
         id="path5917"
         d="m 334.74136,825.35011 -16.16244,-4.04061 c 0,0 -14.14213,-7.07107 -4.04061,12.12183 10.10153,19.1929 20.20305,-8.08122 20.20305,-8.08122 z"
         style="fill:none;stroke:#26c71c;stroke-width:4;stroke-linecap:butt;stroke-linejoin:miter;stroke-miterlimit:4;stroke-opacity:1;stroke-dasharray:none" />
      <path
         inkscape:connector-curvature="0"
         id="path4282"
         d="m 361.87345,805.38861 67.17559,0 0,38.1077 -68.25906,0 -24.50848,-18.7803 c 0,0 26.93657,-22.41846 25.59195,-19.3274 z"
         style="fill:#bcf6bb;fill-opacity:1;fill-rule:nonzero;stroke:#26c71c;stroke-width:3.4000001;stroke-linecap:square;stroke-linejoin:round;stroke-miterlimit:4;stroke-opacity:1;stroke-dasharray:none;marker-start:none" />
      <text
         sodipodi:linespacing="595.00012%"
         id="text5975"
         y="829.34686"
         x="353.2287"
         style="font-size:10px;font-style:normal;font-weight:normal;line-height:595.00012398%;letter-spacing:0px;word-spacing:0px;fill:#000000;fill-opacity:1;stroke:none;font-family:Sans"
         xml:space="preserve"><tspan
           style="font-size:18px;font-weight:bold;line-height:606.00013733%;-inkscape-font-specification:Sans Bold"
           y="829.34686"
           x="353.2287"
           id="tspan5977"
           sodipodi:role="line">master</tspan></text>
    </g>
    <path
       sodipodi:type="arc"
       style="fill:#bfc4ed;fill-opacity:1;fill-rule:evenodd;stroke:#3f4ec8;stroke-width:16;stroke-opacity:1"
       id="path2986-1"
       sodipodi:cx="152.85715"
       sodipodi:cy="236.6479"
       sodipodi:rx="55.714287"
       sodipodi:ry="55.714287"
       d="m 208.57143,236.6479 a 55.714287,55.714287 0 1 1 -111.42857,0 55.714287,55.714287 0 1 1 111.42857,0 z"
       transform="matrix(0,0.40545955,-0.40545955,0,399.59227,777.29413)" />
    <path
       style="fill:none;stroke:#000000;stroke-width:1.5;stroke-linecap:butt;stroke-linejoin:miter;stroke-miterlimit:4;stroke-opacity:1;stroke-dasharray:none;marker-end:url(#Arrow2Lend)"
       d="m 277.68885,839.60542 -27.14323,0 -0.93598,0"
       id="path3774-9"
       inkscape:connector-curvature="0" />
    <path
       sodipodi:type="arc"
       style="fill:#f7e2e5;fill-opacity:1;fill-rule:evenodd;stroke:#c83f53;stroke-width:16;stroke-opacity:1"
       id="path2986-5-9"
       sodipodi:cx="152.85715"
       sodipodi:cy="236.6479"
       sodipodi:rx="55.714287"
       sodipodi:ry="55.714287"
       d="m 208.57143,236.6479 a 55.714287,55.714287 0 1 1 -111.42857,0 55.714287,55.714287 0 1 1 111.42857,0 z"
       transform="matrix(0,0.40545955,-0.40545955,0,390.05509,850.79795)" />
    <path
       style="fill:none;stroke:#000000;stroke-width:1.5;stroke-linecap:butt;stroke-linejoin:miter;stroke-miterlimit:4;stroke-opacity:1;stroke-dasharray:none;marker-end:url(#Arrow2Lend)"
       d="m 349.86596,913.82355 -27.14324,0 -0.93598,0"
       id="path3774-9-4"
       inkscape:connector-curvature="0" />
    <path
       style="fill:none;stroke:#000000;stroke-width:1.89145064;stroke-linecap:butt;stroke-linejoin:miter;stroke-miterlimit:4;stroke-opacity:1;stroke-dasharray:none;marker-start:none;marker-end:url(#marker4771)"
       d="m 269.96416,905.35715 c -46.56198,-43.119 -46.56198,-43.119 -46.56198,-43.119"
       id="path4802"
       inkscape:connector-curvature="0" />
    <g
       id="g4719"
       transform="matrix(0,-1,1,0,-456.36212,1196.3622)">
      <path
         inkscape:connector-curvature="0"
         id="path5917-9"
         d="m 399.51267,918.36535 -16.16243,-4.04061 c 0,0 -14.14213,-7.07107 -4.04061,12.12183 10.10152,19.1929 20.20304,-8.08122 20.20304,-8.08122 z"
         style="fill:none;stroke:#26c71c;stroke-width:4;stroke-linecap:butt;stroke-linejoin:miter;stroke-miterlimit:4;stroke-opacity:1;stroke-dasharray:none" />
      <path
         inkscape:connector-curvature="0"
         id="path4282-7"
         d="m 428.32899,898.43064 71.52508,0 0,38.0537 -72.67871,0 -26.09534,-18.75368 c 0,0 28.68065,-22.3867 27.24897,-19.30002 z"
         style="fill:#bcf6bb;fill-opacity:1;fill-rule:nonzero;stroke:#26c71c;stroke-width:3.4000001;stroke-linecap:square;stroke-linejoin:round;stroke-miterlimit:4;stroke-opacity:1;stroke-dasharray:none;marker-start:none" />
      <text
         sodipodi:linespacing="595.00012%"
         id="text5975-2"
         y="922.36212"
         x="420"
         style="font-size:10px;font-style:normal;font-weight:normal;line-height:595.00012398%;letter-spacing:0px;word-spacing:0px;fill:#000000;fill-opacity:1;stroke:none;font-family:Sans"
         xml:space="preserve"><tspan
           style="font-size:18px;font-weight:bold;line-height:606.00013733%;-inkscape-font-specification:Sans Bold"
           y="922.36212"
           x="420"
           id="tspan5977-2"
           sodipodi:role="line">feature</tspan></text>
    </g>
    <path
       sodipodi:type="arc"
       style="fill:#f7e2e5;fill-opacity:1;fill-rule:evenodd;stroke:#c83f53;stroke-width:16;stroke-opacity:1"
       id="path2986-5-9-1"
       sodipodi:cx="152.85715"
       sodipodi:cy="236.6479"
       sodipodi:rx="55.714287"
       sodipodi:ry="55.714287"
       d="m 208.57143,236.6479 a 55.714287,55.714287 0 1 1 -111.42857,0 55.714287,55.714287 0 1 1 111.42857,0 z"
       transform="matrix(0,0.40545955,-0.40545955,0,470.3655,852.16525)"
       inkscape:transform-center-x="25.833566"
       inkscape:transform-center-y="-44.446712" />
    <path
       sodipodi:type="arc"
       style="fill:#ecdab4;fill-opacity:1;fill-rule:evenodd;stroke:#a77d28;stroke-width:16;stroke-opacity:1"
       id="path2986-5-9-2"
       sodipodi:cx="152.85715"
       sodipodi:cy="236.6479"
       sodipodi:rx="55.714287"
       sodipodi:ry="55.714287"
       d="m 208.57143,236.6479 a 55.714287,55.714287 0 1 1 -111.42857,0 55.714287,55.714287 0 1 1 111.42857,0 z"
       transform="matrix(0,0.40545955,-0.40545955,0,481.57144,776.89438)" />
    <path
       style="fill:none;stroke:#000000;stroke-width:1.52491558;stroke-linecap:butt;stroke-linejoin:miter;stroke-miterlimit:4;stroke-opacity:1;stroke-dasharray:none;marker-end:url(#Arrow2Lend)"
       d="m 359.87001,839.08554 -28.11201,0 -0.96938,0"
       id="path3774-9-5"
       inkscape:connector-curvature="0" />
    <path
       sodipodi:type="arc"
       style="fill:#ecdab4;fill-opacity:1;fill-rule:evenodd;stroke:#a77d28;stroke-width:16;stroke-opacity:1"
       id="path2986-5-9-2-0"
       sodipodi:cx="152.85715"
       sodipodi:cy="236.6479"
       sodipodi:rx="55.714287"
       sodipodi:ry="55.714287"
       d="m 208.57143,236.6479 a 55.714287,55.714287 0 1 1 -111.42857,0 55.714287,55.714287 0 1 1 111.42857,0 z"
       transform="matrix(0,0.40545955,-0.40545955,0,563.00001,776.89438)" />
    <path
       style="fill:none;stroke:#000000;stroke-width:1.52491558;stroke-linecap:butt;stroke-linejoin:miter;stroke-miterlimit:4;stroke-opacity:1;stroke-dasharray:none;marker-end:url(#Arrow2Lend)"
       d="m 441.29858,839.08554 -28.11201,0 -0.96938,0"
       id="path3774-9-5-1"
       inkscape:connector-curvature="0" />
  </g>
</svg>
