<?xml version="1.0" encoding="UTF-8" standalone="no"?>
<!-- Created with Inkscape (http://www.inkscape.org/) -->

<svg
   xmlns:dc="http://purl.org/dc/elements/1.1/"
   xmlns:cc="http://creativecommons.org/ns#"
   xmlns:rdf="http://www.w3.org/1999/02/22-rdf-syntax-ns#"
   xmlns:svg="http://www.w3.org/2000/svg"
   xmlns="http://www.w3.org/2000/svg"
   xmlns:sodipodi="http://sodipodi.sourceforge.net/DTD/sodipodi-0.dtd"
   xmlns:inkscape="http://www.inkscape.org/namespaces/inkscape"
   width="524.40942"
   height="372.04724"
   id="svg4693"
   version="1.1"
   inkscape:version="0.48.4 r9939"
   sodipodi:docname="tag.svg">
  <defs
     id="defs4695">
    <marker
       inkscape:stockid="Arrow2Lend"
       orient="auto"
       refY="0"
       refX="0"
       id="Arrow2Lend"
       style="overflow:visible">
      <path
         inkscape:connector-curvature="0"
         id="path3801"
         style="fill-rule:evenodd;stroke-width:0.625;stroke-linejoin:round"
         d="M 8.7185878,4.0337352 -2.2072895,0.01601326 8.7185884,-4.0017078 c -1.7454984,2.3720609 -1.7354408,5.6174519 -6e-7,8.035443 z"
         transform="matrix(-1.1,0,0,-1.1,-1.1,0)" />
    </marker>
    <marker
       inkscape:stockid="Arrow2Lend"
       orient="auto"
       refY="0"
       refX="0"
       id="marker4713"
       style="overflow:visible">
      <path
         inkscape:connector-curvature="0"
         id="path4715"
         style="fill-rule:evenodd;stroke-width:0.625;stroke-linejoin:round"
         d="M 8.7185878,4.0337352 -2.2072895,0.01601326 8.7185884,-4.0017078 c -1.7454984,2.3720609 -1.7354408,5.6174519 -6e-7,8.035443 z"
         transform="matrix(-1.1,0,0,-1.1,-1.1,0)" />
    </marker>
    <marker
       inkscape:stockid="Arrow2Lend"
       orient="auto"
       refY="0"
       refX="0"
       id="marker4717"
       style="overflow:visible">
      <path
         inkscape:connector-curvature="0"
         id="path4719"
         style="fill-rule:evenodd;stroke-width:0.625;stroke-linejoin:round"
         d="M 8.7185878,4.0337352 -2.2072895,0.01601326 8.7185884,-4.0017078 c -1.7454984,2.3720609 -1.7354408,5.6174519 -6e-7,8.035443 z"
         transform="matrix(-1.1,0,0,-1.1,-1.1,0)" />
    </marker>
    <marker
       inkscape:stockid="Arrow2Lend"
       orient="auto"
       refY="0"
       refX="0"
       id="Arrow2Lend-6"
       style="overflow:visible">
      <path
         inkscape:connector-curvature="0"
         id="path3801-3"
         style="fill-rule:evenodd;stroke-width:0.625;stroke-linejoin:round"
         d="M 8.7185878,4.0337352 -2.2072895,0.01601326 8.7185884,-4.0017078 c -1.7454984,2.3720609 -1.7354408,5.6174519 -6e-7,8.035443 z"
         transform="matrix(-1.1,0,0,-1.1,-1.1,0)" />
    </marker>
    <marker
       inkscape:stockid="Arrow2Lend"
       orient="auto"
       refY="0"
       refX="0"
       id="marker4771"
       style="overflow:visible">
      <path
         inkscape:connector-curvature="0"
         id="path4773"
         style="fill-rule:evenodd;stroke-width:0.625;stroke-linejoin:round"
         d="M 8.7185878,4.0337352 -2.2072895,0.01601326 8.7185884,-4.0017078 c -1.7454984,2.3720609 -1.7354408,5.6174519 -6e-7,8.035443 z"
         transform="matrix(-1.1,0,0,-1.1,-1.1,0)" />
    </marker>
    <marker
       inkscape:stockid="Arrow2Lend"
       orient="auto"
       refY="0"
       refX="0"
       id="Arrow2Lend-3"
       style="overflow:visible">
      <path
         inkscape:connector-curvature="0"
         id="path3801-5"
         style="fill-rule:evenodd;stroke-width:0.625;stroke-linejoin:round"
         d="M 8.7185878,4.0337352 -2.2072895,0.01601326 8.7185884,-4.0017078 c -1.7454984,2.3720609 -1.7354408,5.6174519 -6e-7,8.035443 z"
         transform="matrix(-1.1,0,0,-1.1,-1.1,0)" />
    </marker>
    <marker
       inkscape:stockid="Arrow2Lend"
       orient="auto"
       refY="0"
       refX="0"
       id="marker3022"
       style="overflow:visible">
      <path
         inkscape:connector-curvature="0"
         id="path3024"
         style="fill-rule:evenodd;stroke-width:0.625;stroke-linejoin:round"
         d="M 8.7185878,4.0337352 -2.2072895,0.01601326 8.7185884,-4.0017078 c -1.7454984,2.3720609 -1.7354408,5.6174519 -6e-7,8.035443 z"
         transform="matrix(-1.1,0,0,-1.1,-1.1,0)" />
    </marker>
  </defs>
  <sodipodi:namedview
     id="base"
     pagecolor="#ffffff"
     bordercolor="#666666"
     borderopacity="1.0"
     inkscape:pageopacity="0.0"
     inkscape:pageshadow="2"
     inkscape:zoom="0.98994949"
     inkscape:cx="341.50753"
     inkscape:cy="402.17338"
     inkscape:document-units="px"
     inkscape:current-layer="layer1"
     showgrid="true"
     inkscape:window-width="799"
     inkscape:window-height="833"
     inkscape:window-x="799"
     inkscape:window-y="27"
     inkscape:window-maximized="0"
     inkscape:showpageshadow="false">
    <inkscape:grid
       type="xygrid"
       id="grid3008"
       empspacing="5"
       visible="true"
       enabled="true"
       snapvisiblegridlinesonly="true" />
  </sodipodi:namedview>
  <metadata
     id="metadata4698">
    <rdf:RDF>
      <cc:Work
         rdf:about="">
        <dc:format>image/svg+xml</dc:format>
        <dc:type
           rdf:resource="http://purl.org/dc/dcmitype/StillImage" />
        <dc:title></dc:title>
      </cc:Work>
    </rdf:RDF>
  </metadata>
  <g
     inkscape:label="Layer 1"
     inkscape:groupmode="layer"
     id="layer1"
     transform="translate(0,-680.31491)">
    <path
       style="fill:none;stroke:#bf1cc7;stroke-width:4;stroke-linecap:butt;stroke-linejoin:miter;stroke-miterlimit:4;stroke-opacity:1;stroke-dasharray:none"
       d="m 225.40453,809.77587 -4.04061,16.16244 c 0,0 -7.07107,14.14213 12.12183,4.04061 19.1929,-10.10153 -8.08122,-20.20305 -8.08122,-20.20305 z"
       id="path5917"
       inkscape:connector-curvature="0" />
    <path
       sodipodi:type="arc"
       style="fill:#bfc4ed;fill-opacity:1;fill-rule:evenodd;stroke:#3f4ec8;stroke-width:16;stroke-opacity:1"
       id="path2986"
       sodipodi:cx="152.85715"
       sodipodi:cy="236.6479"
       sodipodi:rx="55.714287"
       sodipodi:ry="55.714287"
       d="m 208.57143,236.6479 a 55.714287,55.714287 0 1 1 -111.42857,0 55.714287,55.714287 0 1 1 111.42857,0 z"
       transform="matrix(0,0.40545955,-0.40545955,0,242.86351,789.35069)" />
    <path
       sodipodi:type="arc"
       style="fill:#bfc4ed;fill-opacity:1;fill-rule:evenodd;stroke:#3f4ec8;stroke-width:16;stroke-opacity:1"
       id="path2986-0"
       sodipodi:cx="152.85715"
       sodipodi:cy="236.6479"
       sodipodi:rx="55.714287"
       sodipodi:ry="55.714287"
       d="m 208.57143,236.6479 a 55.714287,55.714287 0 1 1 -111.42857,0 55.714287,55.714287 0 1 1 111.42857,0 z"
       transform="matrix(0,0.40545955,-0.40545955,0,161.63421,790.71513)" />
    <path
       style="fill:none;stroke:#000000;stroke-width:1.5;stroke-linecap:butt;stroke-linejoin:miter;stroke-miterlimit:4;stroke-opacity:1;stroke-dasharray:none;marker-end:url(#Arrow2Lend)"
       d="m 120.96009,851.66198 -27.143224,0 -0.93598,0"
       id="path3774"
       inkscape:connector-curvature="0" />
    <path
       sodipodi:type="arc"
       style="fill:#bfc4ed;fill-opacity:1;fill-rule:evenodd;stroke:#3f4ec8;stroke-width:16;stroke-opacity:1"
       id="path2986-5"
       sodipodi:cx="152.85715"
       sodipodi:cy="236.6479"
       sodipodi:rx="55.714287"
       sodipodi:ry="55.714287"
       d="m 208.57143,236.6479 a 55.714287,55.714287 0 1 1 -111.42857,0 55.714287,55.714287 0 1 1 111.42857,0 z"
       transform="matrix(0,0.40545955,-0.40545955,0,324.36348,789.37427)" />
    <path
       style="fill:none;stroke:#000000;stroke-width:1.5;stroke-linecap:butt;stroke-linejoin:miter;stroke-miterlimit:4;stroke-opacity:1;stroke-dasharray:none;marker-end:url(#Arrow2Lend)"
       d="m 202.46006,851.68555 -27.14323,0 -0.93598,0"
       id="path3774-3"
       inkscape:connector-curvature="0" />
    <path
       sodipodi:type="arc"
       style="fill:#bfc4ed;fill-opacity:1;fill-rule:evenodd;stroke:#3f4ec8;stroke-width:16;stroke-opacity:1"
       id="path2986-1"
       sodipodi:cx="152.85715"
       sodipodi:cy="236.6479"
       sodipodi:rx="55.714287"
       sodipodi:ry="55.714287"
       d="m 208.57143,236.6479 a 55.714287,55.714287 0 1 1 -111.42857,0 55.714287,55.714287 0 1 1 111.42857,0 z"
       transform="matrix(0,0.40545955,-0.40545955,0,406.07777,790.08855)" />
    <path
       style="fill:none;stroke:#000000;stroke-width:1.5;stroke-linecap:butt;stroke-linejoin:miter;stroke-miterlimit:4;stroke-opacity:1;stroke-dasharray:none;marker-end:url(#Arrow2Lend)"
       d="m 284.17435,852.39984 -27.14323,0 -0.93598,0"
       id="path3774-9"
       inkscape:connector-curvature="0" />
    <flowRoot
       xml:space="preserve"
       id="flowRoot5898"
       style="font-size:10px;font-style:normal;font-weight:normal;line-height:125%;letter-spacing:0px;word-spacing:0px;fill:#000000;fill-opacity:1;stroke:none;font-family:Sans"><flowRegion
         id="flowRegion5900"><rect
           id="rect5902"
           width="56.568542"
           height="11.111678"
           x="141.92644"
           y="268.98889" /></flowRegion><flowPara
         id="flowPara5904">Ver</flowPara></flowRoot>    <path
       style="fill:#f7d7fa;fill-opacity:1;fill-rule:nonzero;stroke:#bf1cc7;stroke-width:3.4;stroke-linecap:square;stroke-linejoin:round;stroke-miterlimit:4;stroke-opacity:1;stroke-dasharray:none;marker-start:none"
       d="m 207.47944,787.80562 0,-62.82746 38.16353,0 0,63.8408 -18.80781,22.92209 c 0,0 -22.45131,-25.19302 -19.35572,-23.93543 z"
       id="path4282-7"
       inkscape:connector-curvature="0" />
    <text
       xml:space="preserve"
       style="font-size:20.56290245px;font-style:normal;font-weight:normal;line-height:125%;letter-spacing:0px;word-spacing:0px;fill:#000000;fill-opacity:1;stroke:none;font-family:Sans"
       x="736.69409"
       y="-218.70634"
       id="text5906"
       sodipodi:linespacing="125%"
       transform="matrix(0,0.99411979,-1.005915,0,0,0)"><tspan
         sodipodi:role="line"
         id="tspan5908"
         x="736.69409"
         y="-218.70634">1.0.0</tspan></text>
    <path
       style="fill:none;stroke:#bf1cc7;stroke-width:4;stroke-linecap:butt;stroke-linejoin:miter;stroke-miterlimit:4;stroke-opacity:1;stroke-dasharray:none"
       d="m 385.40453,809.77587 -4.04061,16.16244 c 0,0 -7.07107,14.14213 12.12183,4.04061 19.1929,-10.10153 -8.08122,-20.20305 -8.08122,-20.20305 z"
       id="path5917-3"
       inkscape:connector-curvature="0" />
    <path
       sodipodi:type="arc"
       style="fill:#bfc4ed;fill-opacity:1;fill-rule:evenodd;stroke:#3f4ec8;stroke-width:16;stroke-opacity:1"
       id="path2986-5-6"
       sodipodi:cx="152.85715"
       sodipodi:cy="236.6479"
       sodipodi:rx="55.714287"
       sodipodi:ry="55.714287"
       d="m 208.57143,236.6479 a 55.714287,55.714287 0 1 1 -111.42857,0 55.714287,55.714287 0 1 1 111.42857,0 z"
       transform="matrix(0,0.40545955,-0.40545955,0,486.54118,789.82858)" />
    <path
       style="fill:none;stroke:#000000;stroke-width:1.5;stroke-linecap:butt;stroke-linejoin:miter;stroke-miterlimit:4;stroke-opacity:1;stroke-dasharray:none;marker-end:url(#Arrow2Lend)"
       d="m 364.63776,852.13986 -27.14323,0 -0.93598,0"
       id="path3774-3-2"
       inkscape:connector-curvature="0" />
    <path
       sodipodi:type="arc"
       style="fill:#bfc4ed;fill-opacity:1;fill-rule:evenodd;stroke:#3f4ec8;stroke-width:16;stroke-opacity:1"
       id="path2986-1-2"
       sodipodi:cx="152.85715"
       sodipodi:cy="236.6479"
       sodipodi:rx="55.714287"
       sodipodi:ry="55.714287"
       d="m 208.57143,236.6479 a 55.714287,55.714287 0 1 1 -111.42857,0 55.714287,55.714287 0 1 1 111.42857,0 z"
       transform="matrix(0,0.40545955,-0.40545955,0,568.25547,790.54286)" />
    <path
       style="fill:none;stroke:#000000;stroke-width:1.5;stroke-linecap:butt;stroke-linejoin:miter;stroke-miterlimit:4;stroke-opacity:1;stroke-dasharray:none;marker-end:url(#Arrow2Lend)"
       d="m 446.35205,852.85415 -27.14323,0 -0.93598,0"
       id="path3774-9-3"
       inkscape:connector-curvature="0" />
    <path
       style="fill:#f7d7fa;fill-opacity:1;fill-rule:nonzero;stroke:#bf1cc7;stroke-width:3.4;stroke-linecap:square;stroke-linejoin:round;stroke-miterlimit:4;stroke-opacity:1;stroke-dasharray:none;marker-start:none"
       d="m 367.47944,787.80562 0,-62.82746 38.16353,0 0,63.8408 -18.80781,22.92209 c 0,0 -22.45131,-25.19302 -19.35572,-23.93543 z"
       id="path4282-7-6"
       inkscape:connector-curvature="0" />
    <text
       xml:space="preserve"
       style="font-size:20.56290245px;font-style:normal;font-weight:normal;line-height:125%;letter-spacing:0px;word-spacing:0px;fill:#000000;fill-opacity:1;stroke:none;font-family:Sans"
       x="736.69409"
       y="-377.7655"
       id="text5906-6"
       sodipodi:linespacing="125%"
       transform="matrix(0,0.99411979,-1.005915,0,0,0)"><tspan
         sodipodi:role="line"
         id="tspan5908-2"
         x="736.69409"
         y="-377.7655">1.1.0</tspan></text>
  </g>
</svg>
